<svg width="85" height="85" viewBox="0 0 85 85" fill="none" xmlns="http://www.w3.org/2000/svg">
<g opacity="0.15">
<path d="M2.83333 5.66667C4.39814 5.66667 5.66667 4.39814 5.66667 2.83333C5.66667 1.26853 4.39814 5.24473e-08 2.83333 3.37872e-08C1.26853 1.5127e-08 -1.5127e-08 1.26853 -3.37872e-08 2.83333C-5.24473e-08 4.39814 1.26853 5.66667 2.83333 5.66667Z" fill="#F2F2F2"/>
<path d="M2.83333 28.3333C4.39814 28.3333 5.66667 27.0648 5.66667 25.5C5.66667 23.9352 4.39814 22.6667 2.83333 22.6667C1.26853 22.6667 -2.85424e-07 23.9352 -3.04084e-07 25.5C-3.22745e-07 27.0648 1.26853 28.3333 2.83333 28.3333Z" fill="#F2F2F2"/>
<path d="M2.83333 17C4.39814 17 5.66667 15.7315 5.66667 14.1667C5.66667 12.6019 4.39814 11.3333 2.83333 11.3333C1.26853 11.3333 -1.50276e-07 12.6019 -1.68936e-07 14.1667C-1.87596e-07 15.7315 1.26853 17 2.83333 17Z" fill="#F2F2F2"/>
<path d="M2.83333 39.6667C4.39814 39.6667 5.66667 38.3981 5.66667 36.8333C5.66667 35.2685 4.39814 34 2.83333 34C1.26853 34 -4.20573e-07 35.2685 -4.39233e-07 36.8333C-4.57893e-07 38.3981 1.26853 39.6667 2.83333 39.6667Z" fill="#F2F2F2"/>
<path d="M48.1667 5.66667C49.7315 5.66667 51 4.39814 51 2.83333C51 1.26853 49.7315 5.93042e-07 48.1667 5.74382e-07C46.6019 5.55722e-07 45.3333 1.26853 45.3333 2.83333C45.3333 4.39814 46.6019 5.66667 48.1667 5.66667Z" fill="#F2F2F2"/>
<path d="M48.1667 51C49.7315 51 51 49.7315 51 48.1667C51 46.6019 49.7315 45.3333 48.1667 45.3333C46.6019 45.3333 45.3333 46.6019 45.3333 48.1667C45.3333 49.7315 46.6019 51 48.1667 51Z" fill="#F2F2F2"/>
<path d="M48.1667 28.3333C49.7315 28.3333 51 27.0648 51 25.5C51 23.9352 49.7315 22.6667 48.1667 22.6667C46.6019 22.6667 45.3333 23.9352 45.3333 25.5C45.3333 27.0648 46.6019 28.3333 48.1667 28.3333Z" fill="#F2F2F2"/>
<path d="M48.1667 73.6667C49.7315 73.6667 51 72.3981 51 70.8333C51 69.2685 49.7315 68 48.1667 68C46.6019 68 45.3333 69.2685 45.3333 70.8333C45.3333 72.3981 46.6019 73.6667 48.1667 73.6667Z" fill="#F2F2F2"/>
<path d="M48.1667 17C49.7315 17 51 15.7315 51 14.1667C51 12.6019 49.7315 11.3333 48.1667 11.3333C46.6019 11.3333 45.3333 12.6019 45.3333 14.1667C45.3333 15.7315 46.6019 17 48.1667 17Z" fill="#F2F2F2"/>
<path d="M48.1667 62.3333C49.7315 62.3333 51 61.0648 51 59.5C51 57.9352 49.7315 56.6667 48.1667 56.6667C46.6019 56.6667 45.3333 57.9352 45.3333 59.5C45.3333 61.0648 46.6019 62.3333 48.1667 62.3333Z" fill="#F2F2F2"/>
<path d="M48.1667 39.6667C49.7315 39.6667 51 38.3981 51 36.8333C51 35.2685 49.7315 34 48.1667 34C46.6019 34 45.3333 35.2685 45.3333 36.8333C45.3333 38.3981 46.6019 39.6667 48.1667 39.6667Z" fill="#F2F2F2"/>
<path d="M48.1667 85C49.7315 85 51 83.7315 51 82.1667C51 80.6019 49.7315 79.3333 48.1667 79.3333C46.6019 79.3333 45.3333 80.6019 45.3333 82.1667C45.3333 83.7315 46.6019 85 48.1667 85Z" fill="#F2F2F2"/>
<path d="M14.1667 5.66667C15.7315 5.66667 17 4.39814 17 2.83333C17 1.26853 15.7315 1.87596e-07 14.1667 1.68936e-07C12.6019 1.50276e-07 11.3333 1.26853 11.3333 2.83333C11.3333 4.39814 12.6019 5.66667 14.1667 5.66667Z" fill="#F2F2F2"/>
<path d="M14.1667 28.3333C15.7315 28.3333 17 27.0648 17 25.5C17 23.9352 15.7315 22.6667 14.1667 22.6667C12.6019 22.6667 11.3333 23.9352 11.3333 25.5C11.3333 27.0648 12.6019 28.3333 14.1667 28.3333Z" fill="#F2F2F2"/>
<path d="M14.1667 17C15.7315 17 17 15.7315 17 14.1667C17 12.6019 15.7315 11.3333 14.1667 11.3333C12.6019 11.3333 11.3333 12.6019 11.3333 14.1667C11.3333 15.7315 12.6019 17 14.1667 17Z" fill="#F2F2F2"/>
<path d="M14.1667 39.6667C15.7315 39.6667 17 38.3981 17 36.8333C17 35.2685 15.7315 34 14.1667 34C12.6019 34 11.3333 35.2685 11.3333 36.8333C11.3333 38.3981 12.6019 39.6667 14.1667 39.6667Z" fill="#F2F2F2"/>
<path d="M59.5 5.66667C61.0648 5.66667 62.3333 4.39814 62.3333 2.83333C62.3333 1.26853 61.0648 7.28191e-07 59.5 7.0953e-07C57.9352 6.9087e-07 56.6667 1.26853 56.6667 2.83333C56.6667 4.39814 57.9352 5.66667 59.5 5.66667Z" fill="#F2F2F2"/>
<path d="M59.5 51C61.0648 51 62.3333 49.7315 62.3333 48.1667C62.3333 46.6019 61.0648 45.3333 59.5 45.3333C57.9352 45.3333 56.6667 46.6019 56.6667 48.1667C56.6667 49.7315 57.9352 51 59.5 51Z" fill="#F2F2F2"/>
<path d="M59.5 28.3333C61.0648 28.3333 62.3333 27.0648 62.3333 25.5C62.3333 23.9352 61.0648 22.6667 59.5 22.6667C57.9352 22.6667 56.6667 23.9352 56.6667 25.5C56.6667 27.0648 57.9352 28.3333 59.5 28.3333Z" fill="#F2F2F2"/>
<path d="M59.5 73.6667C61.0648 73.6667 62.3333 72.3981 62.3333 70.8333C62.3333 69.2685 61.0648 68 59.5 68C57.9352 68 56.6667 69.2685 56.6667 70.8333C56.6667 72.3981 57.9352 73.6667 59.5 73.6667Z" fill="#F2F2F2"/>
<path d="M59.5 17C61.0648 17 62.3333 15.7315 62.3333 14.1667C62.3333 12.6019 61.0648 11.3333 59.5 11.3333C57.9352 11.3333 56.6667 12.6019 56.6667 14.1667C56.6667 15.7315 57.9352 17 59.5 17Z" fill="#F2F2F2"/>
<path d="M59.5 62.3333C61.0648 62.3333 62.3333 61.0648 62.3333 59.5C62.3333 57.9352 61.0648 56.6667 59.5 56.6667C57.9352 56.6667 56.6667 57.9352 56.6667 59.5C56.6667 61.0648 57.9352 62.3333 59.5 62.3333Z" fill="#F2F2F2"/>
<path d="M59.5 39.6667C61.0648 39.6667 62.3333 38.3981 62.3333 36.8333C62.3333 35.2685 61.0648 34 59.5 34C57.9352 34 56.6667 35.2685 56.6667 36.8333C56.6667 38.3981 57.9352 39.6667 59.5 39.6667Z" fill="#F2F2F2"/>
<path d="M59.5 85C61.0648 85 62.3333 83.7315 62.3333 82.1667C62.3333 80.6019 61.0648 79.3333 59.5 79.3333C57.9352 79.3333 56.6667 80.6019 56.6667 82.1667C56.6667 83.7315 57.9352 85 59.5 85Z" fill="#F2F2F2"/>
<path d="M25.5 5.66667C27.0648 5.66667 28.3333 4.39814 28.3333 2.83333C28.3333 1.26853 27.0648 3.22745e-07 25.5 3.04084e-07C23.9352 2.85424e-07 22.6667 1.26853 22.6667 2.83333C22.6667 4.39814 23.9352 5.66667 25.5 5.66667Z" fill="#F2F2F2"/>
<path d="M25.5 28.3333C27.0648 28.3333 28.3333 27.0648 28.3333 25.5C28.3333 23.9352 27.0648 22.6667 25.5 22.6667C23.9352 22.6667 22.6667 23.9352 22.6667 25.5C22.6667 27.0648 23.9352 28.3333 25.5 28.3333Z" fill="#F2F2F2"/>
<path d="M25.5 17C27.0648 17 28.3333 15.7315 28.3333 14.1667C28.3333 12.6019 27.0648 11.3333 25.5 11.3333C23.9352 11.3333 22.6667 12.6019 22.6667 14.1667C22.6667 15.7315 23.9352 17 25.5 17Z" fill="#F2F2F2"/>
<path d="M25.5 39.6667C27.0648 39.6667 28.3333 38.3981 28.3333 36.8333C28.3333 35.2685 27.0648 34 25.5 34C23.9352 34 22.6667 35.2685 22.6667 36.8333C22.6667 38.3981 23.9352 39.6667 25.5 39.6667Z" fill="#F2F2F2"/>
<path d="M70.8333 5.66667C72.3981 5.66667 73.6667 4.39814 73.6667 2.83333C73.6667 1.26853 72.3981 8.63339e-07 70.8333 8.44679e-07C69.2685 8.26019e-07 68 1.26853 68 2.83333C68 4.39814 69.2685 5.66667 70.8333 5.66667Z" fill="#F2F2F2"/>
<path d="M70.8333 51C72.3981 51 73.6667 49.7315 73.6667 48.1667C73.6667 46.6019 72.3981 45.3333 70.8333 45.3333C69.2685 45.3333 68 46.6019 68 48.1667C68 49.7315 69.2685 51 70.8333 51Z" fill="#F2F2F2"/>
<path d="M70.8333 28.3333C72.3981 28.3333 73.6667 27.0648 73.6667 25.5C73.6667 23.9352 72.3981 22.6667 70.8333 22.6667C69.2685 22.6667 68 23.9352 68 25.5C68 27.0648 69.2685 28.3333 70.8333 28.3333Z" fill="#F2F2F2"/>
<path d="M70.8333 73.6667C72.3981 73.6667 73.6667 72.3981 73.6667 70.8333C73.6667 69.2685 72.3981 68 70.8333 68C69.2685 68 68 69.2685 68 70.8333C68 72.3981 69.2685 73.6667 70.8333 73.6667Z" fill="#F2F2F2"/>
<path d="M70.8333 17C72.3981 17 73.6667 15.7315 73.6667 14.1667C73.6667 12.6019 72.3981 11.3333 70.8333 11.3333C69.2685 11.3333 68 12.6019 68 14.1667C68 15.7315 69.2685 17 70.8333 17Z" fill="#F2F2F2"/>
<path d="M70.8333 62.3333C72.3981 62.3333 73.6667 61.0648 73.6667 59.5C73.6667 57.9352 72.3981 56.6667 70.8333 56.6667C69.2685 56.6667 68 57.9352 68 59.5C68 61.0648 69.2685 62.3333 70.8333 62.3333Z" fill="#F2F2F2"/>
<path d="M70.8333 39.6667C72.3981 39.6667 73.6667 38.3981 73.6667 36.8333C73.6667 35.2685 72.3981 34 70.8333 34C69.2685 34 68 35.2685 68 36.8333C68 38.3981 69.2685 39.6667 70.8333 39.6667Z" fill="#F2F2F2"/>
<path d="M70.8333 85C72.3981 85 73.6667 83.7315 73.6667 82.1667C73.6667 80.6019 72.3981 79.3333 70.8333 79.3333C69.2685 79.3333 68 80.6019 68 82.1667C68 83.7315 69.2685 85 70.8333 85Z" fill="#F2F2F2"/>
<path d="M36.8333 5.66667C38.3981 5.66667 39.6667 4.39814 39.6667 2.83333C39.6667 1.26853 38.3981 4.57893e-07 36.8333 4.39233e-07C35.2685 4.20573e-07 34 1.26853 34 2.83333C34 4.39814 35.2685 5.66667 36.8333 5.66667Z" fill="#F2F2F2"/>
<path d="M36.8333 28.3333C38.3981 28.3333 39.6667 27.0648 39.6667 25.5C39.6667 23.9352 38.3981 22.6667 36.8333 22.6667C35.2685 22.6667 34 23.9352 34 25.5C34 27.0648 35.2685 28.3333 36.8333 28.3333Z" fill="#F2F2F2"/>
<path d="M36.8333 17C38.3981 17 39.6667 15.7315 39.6667 14.1667C39.6667 12.6019 38.3981 11.3333 36.8333 11.3333C35.2685 11.3333 34 12.6019 34 14.1667C34 15.7315 35.2685 17 36.8333 17Z" fill="#F2F2F2"/>
<path d="M36.8333 39.6667C38.3981 39.6667 39.6667 38.3981 39.6667 36.8333C39.6667 35.2685 38.3981 34 36.8333 34C35.2685 34 34 35.2685 34 36.8333C34 38.3981 35.2685 39.6667 36.8333 39.6667Z" fill="#F2F2F2"/>
<path d="M82.1667 5.66667C83.7315 5.66667 85 4.39814 85 2.83333C85 1.26853 83.7315 9.98488e-07 82.1667 9.79828e-07C80.6019 9.61168e-07 79.3333 1.26853 79.3333 2.83333C79.3333 4.39814 80.6019 5.66667 82.1667 5.66667Z" fill="#F2F2F2"/>
<path d="M82.1667 51C83.7315 51 85 49.7315 85 48.1667C85 46.6019 83.7315 45.3333 82.1667 45.3333C80.6019 45.3333 79.3333 46.6019 79.3333 48.1667C79.3333 49.7315 80.6019 51 82.1667 51Z" fill="#F2F2F2"/>
<path d="M82.1667 28.3333C83.7315 28.3333 85 27.0648 85 25.5C85 23.9352 83.7315 22.6667 82.1667 22.6667C80.6019 22.6667 79.3333 23.9352 79.3333 25.5C79.3333 27.0648 80.6019 28.3333 82.1667 28.3333Z" fill="#F2F2F2"/>
<path d="M82.1667 73.6667C83.7315 73.6667 85 72.3981 85 70.8333C85 69.2685 83.7315 68 82.1667 68C80.6019 68 79.3333 69.2685 79.3333 70.8333C79.3333 72.3981 80.6019 73.6667 82.1667 73.6667Z" fill="#F2F2F2"/>
<path d="M82.1667 17C83.7315 17 85 15.7315 85 14.1667C85 12.6019 83.7315 11.3333 82.1667 11.3333C80.6019 11.3333 79.3333 12.6019 79.3333 14.1667C79.3333 15.7315 80.6019 17 82.1667 17Z" fill="#F2F2F2"/>
<path d="M82.1667 62.3333C83.7315 62.3333 85 61.0648 85 59.5C85 57.9352 83.7315 56.6667 82.1667 56.6667C80.6019 56.6667 79.3333 57.9352 79.3333 59.5C79.3333 61.0648 80.6019 62.3333 82.1667 62.3333Z" fill="#F2F2F2"/>
<path d="M82.1667 39.6667C83.7315 39.6667 85 38.3981 85 36.8333C85 35.2685 83.7315 34 82.1667 34C80.6019 34 79.3333 35.2685 79.3333 36.8333C79.3333 38.3981 80.6019 39.6667 82.1667 39.6667Z" fill="#F2F2F2"/>
<path d="M82.1667 85C83.7315 85 85 83.7315 85 82.1667C85 80.6019 83.7315 79.3333 82.1667 79.3333C80.6019 79.3333 79.3333 80.6019 79.3333 82.1667C79.3333 83.7315 80.6019 85 82.1667 85Z" fill="#F2F2F2"/>
</g>
</svg>
