<svg width="85" height="85" viewBox="0 0 85 85" fill="none" xmlns="http://www.w3.org/2000/svg">
<g opacity="0.15">
<path d="M82.1667 5.66667C80.6019 5.66667 79.3333 4.39814 79.3333 2.83333C79.3333 1.26853 80.6019 5.24473e-08 82.1667 3.37872e-08C83.7315 1.5127e-08 85 1.26853 85 2.83333C85 4.39814 83.7315 5.66667 82.1667 5.66667Z" fill="#F2F2F2"/>
<path d="M82.1667 28.3333C80.6019 28.3333 79.3333 27.0648 79.3333 25.5C79.3333 23.9352 80.6019 22.6667 82.1667 22.6667C83.7315 22.6667 85 23.9352 85 25.5C85 27.0648 83.7315 28.3333 82.1667 28.3333Z" fill="#F2F2F2"/>
<path d="M82.1667 17C80.6019 17 79.3333 15.7315 79.3333 14.1667C79.3333 12.6019 80.6019 11.3333 82.1667 11.3333C83.7315 11.3333 85 12.6019 85 14.1667C85 15.7315 83.7315 17 82.1667 17Z" fill="#F2F2F2"/>
<path d="M82.1667 39.6667C80.6019 39.6667 79.3333 38.3981 79.3333 36.8333C79.3333 35.2685 80.6019 34 82.1667 34C83.7315 34 85 35.2685 85 36.8333C85 38.3981 83.7315 39.6667 82.1667 39.6667Z" fill="#F2F2F2"/>
<path d="M36.8333 5.66667C35.2685 5.66667 34 4.39814 34 2.83333C34 1.26853 35.2685 5.93042e-07 36.8333 5.74382e-07C38.3981 5.55722e-07 39.6667 1.26853 39.6667 2.83333C39.6667 4.39814 38.3981 5.66667 36.8333 5.66667Z" fill="#F2F2F2"/>
<path d="M36.8333 51C35.2685 51 34 49.7315 34 48.1667C34 46.6019 35.2685 45.3333 36.8333 45.3333C38.3981 45.3333 39.6667 46.6019 39.6667 48.1667C39.6667 49.7315 38.3981 51 36.8333 51Z" fill="#F2F2F2"/>
<path d="M36.8333 28.3333C35.2685 28.3333 34 27.0648 34 25.5C34 23.9352 35.2685 22.6667 36.8333 22.6667C38.3981 22.6667 39.6667 23.9352 39.6667 25.5C39.6667 27.0648 38.3981 28.3333 36.8333 28.3333Z" fill="#F2F2F2"/>
<path d="M36.8333 73.6667C35.2685 73.6667 34 72.3981 34 70.8333C34 69.2685 35.2685 68 36.8333 68C38.3981 68 39.6667 69.2685 39.6667 70.8333C39.6667 72.3981 38.3981 73.6667 36.8333 73.6667Z" fill="#F2F2F2"/>
<path d="M36.8333 17C35.2685 17 34 15.7315 34 14.1667C34 12.6019 35.2685 11.3333 36.8333 11.3333C38.3981 11.3333 39.6667 12.6019 39.6667 14.1667C39.6667 15.7315 38.3981 17 36.8333 17Z" fill="#F2F2F2"/>
<path d="M36.8333 62.3333C35.2685 62.3333 34 61.0648 34 59.5C34 57.9352 35.2685 56.6667 36.8333 56.6667C38.3981 56.6667 39.6667 57.9352 39.6667 59.5C39.6667 61.0648 38.3981 62.3333 36.8333 62.3333Z" fill="#F2F2F2"/>
<path d="M36.8333 39.6667C35.2685 39.6667 34 38.3981 34 36.8333C34 35.2685 35.2685 34 36.8333 34C38.3981 34 39.6667 35.2685 39.6667 36.8333C39.6667 38.3981 38.3981 39.6667 36.8333 39.6667Z" fill="#F2F2F2"/>
<path d="M36.8333 85C35.2685 85 34 83.7315 34 82.1667C34 80.6019 35.2685 79.3333 36.8333 79.3333C38.3981 79.3333 39.6667 80.6019 39.6667 82.1667C39.6667 83.7315 38.3981 85 36.8333 85Z" fill="#F2F2F2"/>
<path d="M70.8333 5.66667C69.2685 5.66667 68 4.39814 68 2.83333C68 1.26853 69.2685 1.87596e-07 70.8333 1.68936e-07C72.3981 1.50276e-07 73.6667 1.26853 73.6667 2.83333C73.6667 4.39814 72.3981 5.66667 70.8333 5.66667Z" fill="#F2F2F2"/>
<path d="M70.8333 28.3333C69.2685 28.3333 68 27.0648 68 25.5C68 23.9352 69.2685 22.6667 70.8333 22.6667C72.3981 22.6667 73.6667 23.9352 73.6667 25.5C73.6667 27.0648 72.3981 28.3333 70.8333 28.3333Z" fill="#F2F2F2"/>
<path d="M70.8333 17C69.2685 17 68 15.7315 68 14.1667C68 12.6019 69.2685 11.3333 70.8333 11.3333C72.3981 11.3333 73.6667 12.6019 73.6667 14.1667C73.6667 15.7315 72.3981 17 70.8333 17Z" fill="#F2F2F2"/>
<path d="M70.8333 39.6667C69.2685 39.6667 68 38.3981 68 36.8333C68 35.2685 69.2685 34 70.8333 34C72.3981 34 73.6667 35.2685 73.6667 36.8333C73.6667 38.3981 72.3981 39.6667 70.8333 39.6667Z" fill="#F2F2F2"/>
<path d="M25.5 5.66667C23.9352 5.66667 22.6667 4.39814 22.6667 2.83333C22.6667 1.26853 23.9352 7.28191e-07 25.5 7.0953e-07C27.0648 6.9087e-07 28.3333 1.26853 28.3333 2.83333C28.3333 4.39814 27.0648 5.66667 25.5 5.66667Z" fill="#F2F2F2"/>
<path d="M25.5 51C23.9352 51 22.6667 49.7315 22.6667 48.1667C22.6667 46.6019 23.9352 45.3333 25.5 45.3333C27.0648 45.3333 28.3333 46.6019 28.3333 48.1667C28.3333 49.7315 27.0648 51 25.5 51Z" fill="#F2F2F2"/>
<path d="M25.5 28.3333C23.9352 28.3333 22.6667 27.0648 22.6667 25.5C22.6667 23.9352 23.9352 22.6667 25.5 22.6667C27.0648 22.6667 28.3333 23.9352 28.3333 25.5C28.3333 27.0648 27.0648 28.3333 25.5 28.3333Z" fill="#F2F2F2"/>
<path d="M25.5 73.6667C23.9352 73.6667 22.6667 72.3981 22.6667 70.8333C22.6667 69.2685 23.9352 68 25.5 68C27.0648 68 28.3333 69.2685 28.3333 70.8333C28.3333 72.3981 27.0648 73.6667 25.5 73.6667Z" fill="#F2F2F2"/>
<path d="M25.5 17C23.9352 17 22.6667 15.7315 22.6667 14.1667C22.6667 12.6019 23.9352 11.3333 25.5 11.3333C27.0648 11.3333 28.3333 12.6019 28.3333 14.1667C28.3333 15.7315 27.0648 17 25.5 17Z" fill="#F2F2F2"/>
<path d="M25.5 62.3333C23.9352 62.3333 22.6667 61.0648 22.6667 59.5C22.6667 57.9352 23.9352 56.6667 25.5 56.6667C27.0648 56.6667 28.3333 57.9352 28.3333 59.5C28.3333 61.0648 27.0648 62.3333 25.5 62.3333Z" fill="#F2F2F2"/>
<path d="M25.5 39.6667C23.9352 39.6667 22.6667 38.3981 22.6667 36.8333C22.6667 35.2685 23.9352 34 25.5 34C27.0648 34 28.3333 35.2685 28.3333 36.8333C28.3333 38.3981 27.0648 39.6667 25.5 39.6667Z" fill="#F2F2F2"/>
<path d="M25.5 85C23.9352 85 22.6667 83.7315 22.6667 82.1667C22.6667 80.6019 23.9352 79.3333 25.5 79.3333C27.0648 79.3333 28.3333 80.6019 28.3333 82.1667C28.3333 83.7315 27.0648 85 25.5 85Z" fill="#F2F2F2"/>
<path d="M59.5 5.66667C57.9352 5.66667 56.6667 4.39814 56.6667 2.83333C56.6667 1.26853 57.9352 3.22745e-07 59.5 3.04084e-07C61.0648 2.85424e-07 62.3333 1.26853 62.3333 2.83333C62.3333 4.39814 61.0648 5.66667 59.5 5.66667Z" fill="#F2F2F2"/>
<path d="M59.5 28.3333C57.9352 28.3333 56.6667 27.0648 56.6667 25.5C56.6667 23.9352 57.9352 22.6667 59.5 22.6667C61.0648 22.6667 62.3333 23.9352 62.3333 25.5C62.3333 27.0648 61.0648 28.3333 59.5 28.3333Z" fill="#F2F2F2"/>
<path d="M59.5 17C57.9352 17 56.6667 15.7315 56.6667 14.1667C56.6667 12.6019 57.9352 11.3333 59.5 11.3333C61.0648 11.3333 62.3333 12.6019 62.3333 14.1667C62.3333 15.7315 61.0648 17 59.5 17Z" fill="#F2F2F2"/>
<path d="M59.5 39.6667C57.9352 39.6667 56.6667 38.3981 56.6667 36.8333C56.6667 35.2685 57.9352 34 59.5 34C61.0648 34 62.3333 35.2685 62.3333 36.8333C62.3333 38.3981 61.0648 39.6667 59.5 39.6667Z" fill="#F2F2F2"/>
<path d="M14.1667 5.66667C12.6019 5.66667 11.3333 4.39814 11.3333 2.83333C11.3333 1.26853 12.6019 8.63339e-07 14.1667 8.44679e-07C15.7315 8.26019e-07 17 1.26853 17 2.83333C17 4.39814 15.7315 5.66667 14.1667 5.66667Z" fill="#F2F2F2"/>
<path d="M14.1667 51C12.6019 51 11.3333 49.7315 11.3333 48.1667C11.3333 46.6019 12.6019 45.3333 14.1667 45.3333C15.7315 45.3333 17 46.6019 17 48.1667C17 49.7315 15.7315 51 14.1667 51Z" fill="#F2F2F2"/>
<path d="M14.1667 28.3333C12.6019 28.3333 11.3333 27.0648 11.3333 25.5C11.3333 23.9352 12.6019 22.6667 14.1667 22.6667C15.7315 22.6667 17 23.9352 17 25.5C17 27.0648 15.7315 28.3333 14.1667 28.3333Z" fill="#F2F2F2"/>
<path d="M14.1667 73.6667C12.6019 73.6667 11.3333 72.3981 11.3333 70.8333C11.3333 69.2685 12.6019 68 14.1667 68C15.7315 68 17 69.2685 17 70.8333C17 72.3981 15.7315 73.6667 14.1667 73.6667Z" fill="#F2F2F2"/>
<path d="M14.1667 17C12.6019 17 11.3333 15.7315 11.3333 14.1667C11.3333 12.6019 12.6019 11.3333 14.1667 11.3333C15.7315 11.3333 17 12.6019 17 14.1667C17 15.7315 15.7315 17 14.1667 17Z" fill="#F2F2F2"/>
<path d="M14.1667 62.3333C12.6019 62.3333 11.3333 61.0648 11.3333 59.5C11.3333 57.9352 12.6019 56.6667 14.1667 56.6667C15.7315 56.6667 17 57.9352 17 59.5C17 61.0648 15.7315 62.3333 14.1667 62.3333Z" fill="#F2F2F2"/>
<path d="M14.1667 39.6667C12.6019 39.6667 11.3333 38.3981 11.3333 36.8333C11.3333 35.2685 12.6019 34 14.1667 34C15.7315 34 17 35.2685 17 36.8333C17 38.3981 15.7315 39.6667 14.1667 39.6667Z" fill="#F2F2F2"/>
<path d="M14.1667 85C12.6019 85 11.3333 83.7315 11.3333 82.1667C11.3333 80.6019 12.6019 79.3333 14.1667 79.3333C15.7315 79.3333 17 80.6019 17 82.1667C17 83.7315 15.7315 85 14.1667 85Z" fill="#F2F2F2"/>
<path d="M48.1667 5.66667C46.6019 5.66667 45.3333 4.39814 45.3333 2.83333C45.3333 1.26853 46.6019 4.57893e-07 48.1667 4.39233e-07C49.7315 4.20573e-07 51 1.26853 51 2.83333C51 4.39814 49.7315 5.66667 48.1667 5.66667Z" fill="#F2F2F2"/>
<path d="M48.1667 28.3333C46.6019 28.3333 45.3333 27.0648 45.3333 25.5C45.3333 23.9352 46.6019 22.6667 48.1667 22.6667C49.7315 22.6667 51 23.9352 51 25.5C51 27.0648 49.7315 28.3333 48.1667 28.3333Z" fill="#F2F2F2"/>
<path d="M48.1667 17C46.6019 17 45.3333 15.7315 45.3333 14.1667C45.3333 12.6019 46.6019 11.3333 48.1667 11.3333C49.7315 11.3333 51 12.6019 51 14.1667C51 15.7315 49.7315 17 48.1667 17Z" fill="#F2F2F2"/>
<path d="M48.1667 39.6667C46.6019 39.6667 45.3333 38.3981 45.3333 36.8333C45.3333 35.2685 46.6019 34 48.1667 34C49.7315 34 51 35.2685 51 36.8333C51 38.3981 49.7315 39.6667 48.1667 39.6667Z" fill="#F2F2F2"/>
<path d="M2.83334 5.66667C1.26853 5.66667 5.24473e-08 4.39814 3.37872e-08 2.83333C1.5127e-08 1.26853 1.26853 9.98488e-07 2.83334 9.79828e-07C4.39814 9.61168e-07 5.66666 1.26853 5.66666 2.83333C5.66666 4.39814 4.39814 5.66667 2.83334 5.66667Z" fill="#F2F2F2"/>
<path d="M2.83334 51C1.26853 51 5.93042e-07 49.7315 5.74382e-07 48.1667C5.55722e-07 46.6019 1.26853 45.3333 2.83334 45.3333C4.39814 45.3333 5.66666 46.6019 5.66666 48.1667C5.66666 49.7315 4.39814 51 2.83334 51Z" fill="#F2F2F2"/>
<path d="M2.83334 28.3333C1.26853 28.3333 3.22745e-07 27.0648 3.04084e-07 25.5C2.85424e-07 23.9352 1.26853 22.6667 2.83334 22.6667C4.39814 22.6667 5.66666 23.9352 5.66666 25.5C5.66666 27.0648 4.39814 28.3333 2.83334 28.3333Z" fill="#F2F2F2"/>
<path d="M2.83334 73.6667C1.26853 73.6667 8.63339e-07 72.3981 8.44679e-07 70.8333C8.26019e-07 69.2685 1.26853 68 2.83334 68C4.39814 68 5.66666 69.2685 5.66666 70.8333C5.66666 72.3981 4.39814 73.6667 2.83334 73.6667Z" fill="#F2F2F2"/>
<path d="M2.83334 17C1.26853 17 1.87596e-07 15.7315 1.68936e-07 14.1667C1.50276e-07 12.6019 1.26853 11.3333 2.83334 11.3333C4.39814 11.3333 5.66666 12.6019 5.66666 14.1667C5.66666 15.7315 4.39814 17 2.83334 17Z" fill="#F2F2F2"/>
<path d="M2.83334 62.3333C1.26853 62.3333 7.28191e-07 61.0648 7.0953e-07 59.5C6.9087e-07 57.9352 1.26853 56.6667 2.83334 56.6667C4.39814 56.6667 5.66666 57.9352 5.66666 59.5C5.66666 61.0648 4.39814 62.3333 2.83334 62.3333Z" fill="#F2F2F2"/>
<path d="M2.83334 39.6667C1.26853 39.6667 4.57893e-07 38.3981 4.39233e-07 36.8333C4.20573e-07 35.2685 1.26853 34 2.83334 34C4.39814 34 5.66666 35.2685 5.66666 36.8333C5.66666 38.3981 4.39814 39.6667 2.83334 39.6667Z" fill="#F2F2F2"/>
<path d="M2.83334 85C1.26853 85 9.98488e-07 83.7315 9.79828e-07 82.1667C9.61168e-07 80.6019 1.26853 79.3333 2.83334 79.3333C4.39814 79.3333 5.66667 80.6019 5.66667 82.1667C5.66667 83.7315 4.39814 85 2.83334 85Z" fill="#F2F2F2"/>
</g>
</svg>
