<svg width="1229" height="1438" viewBox="0 0 1229 1438" fill="none" xmlns="http://www.w3.org/2000/svg">
<path fill-rule="evenodd" clip-rule="evenodd" d="M69.9404 760.243L135.645 804.046L179.873 909.878L212.188 968.353L250.006 1025.08L66.3105 1038.69L14.501 985.091L41.3094 950.398L0 897.967L36.8887 867.494L0.308561 789.562L69.9404 760.243ZM160.5 901.118L123.958 813.679L68.3834 776.629L19.846 797.066L51.6569 864.837L160.5 901.118ZM201.763 978.851L53.6663 958.117L33.6409 984.032L72.0133 1023.73L224.167 1012.46L201.763 978.851ZM1158.34 760.243L1227.97 789.562L1191.39 867.494L1228.28 897.967L1186.97 950.398L1213.78 985.091L1161.97 1038.69L978.274 1025.08L1016.09 968.353L1048.41 909.878L1092.64 804.046L1158.34 760.243ZM1176.62 864.837L1067.78 901.118L1104.32 813.679L1159.9 776.629L1208.43 797.066L1176.62 864.837ZM1174.61 958.117L1026.52 978.851L1004.11 1012.46L1156.27 1023.73L1194.64 984.032L1174.61 958.117Z" fill="#030303"/>
<path d="M123.958 813.679L160.5 901.118L51.6569 864.837L19.846 797.066L68.3834 776.629L123.958 813.679Z" fill="#00B88E"/>
<path d="M53.6663 958.117L201.763 978.851L224.167 1012.46L72.0133 1023.73L33.6409 984.032L53.6663 958.117Z" fill="#00B88E"/>
<path d="M1176.62 864.837L1067.78 901.118L1104.32 813.679L1159.9 776.629L1208.43 797.066L1176.62 864.837Z" fill="#00B88E"/>
<path d="M1026.52 978.851L1174.61 958.117L1194.64 984.032L1156.27 1023.73L1004.11 1012.46L1026.52 978.851Z" fill="#00B88E"/>
<path fill-rule="evenodd" clip-rule="evenodd" d="M469.286 35.1492C469.084 35.2131 468.899 35.272 468.728 35.3256L468.309 35.4577L467.88 35.5511C371.672 56.4903 293.907 47.1893 252.017 35.722C261.626 53.9948 278.308 79.2203 302.656 101.134L324.81 121.074L295.17 117.929C289.622 117.341 282.2 115.733 274.94 113.534C283.872 129.685 300.511 150.242 329.993 165.504L339.311 170.327L292.529 244.994L97.4929 293.968L97.4929 598.992L97.4927 599.026C96.4852 739.066 198.73 1100.87 613.641 1414.26C695.72 1357.79 817.24 1251.67 922.048 1112.16C1029.26 969.451 1118.44 792.531 1130.8 598.651V294.01L931.103 245.02L884.305 170.327L893.623 165.504C923.105 150.242 939.744 129.685 948.676 113.534C941.415 115.733 933.993 117.341 928.446 117.929L898.806 121.074L920.96 101.134C945.289 79.2373 961.964 54.0339 971.576 35.7645C930.043 47.2108 853.462 56.4657 757.367 35.5511L756.938 35.4577L756.519 35.3256C756.348 35.272 756.162 35.2131 755.961 35.1492C746.892 32.2752 706.046 19.33 612.623 19.33C519.201 19.33 478.355 32.2751 469.286 35.1492ZM463.357 16.7509C473.726 13.4773 516.415 0 612.623 0C708.832 0 751.52 13.4772 761.89 16.7509L761.908 16.7566C874.754 41.2234 958.3 22.3681 985.595 10.6493L1005.6 2.0606L998.553 22.6585C994.193 35.4021 981.659 61.4059 960.088 87.8922C960.383 87.7003 960.663 87.5098 960.925 87.321L982.291 71.937L975.953 97.4909C971.897 113.847 955.927 151.121 911.658 177.577L943.322 228.114L1150.13 278.849V599.262L1150.11 599.567C1137.51 798.636 1046.1 979.224 937.503 1123.77C828.892 1268.34 702.54 1377.61 618.77 1434.15L613.071 1438L607.567 1433.88C183.768 1116.34 77.1188 746.455 78.1629 598.922L78.1629 278.892L280.278 228.14L311.957 177.577C267.688 151.121 251.719 113.847 247.663 97.4909L241.325 71.937L262.691 87.321C262.953 87.5098 263.232 87.7002 263.528 87.8921C241.957 61.4059 229.423 35.4021 225.063 22.6585L218.017 2.06058L238.021 10.6493C265.306 22.3639 350.477 41.2258 463.339 16.7566C463.345 16.7547 463.351 16.7528 463.357 16.7509Z" fill="#030303"/>
<path d="M468.728 35.3256C468.899 35.272 469.084 35.2131 469.286 35.1492C478.355 32.2751 519.201 19.33 612.623 19.33C706.046 19.33 746.892 32.2752 755.961 35.1492C756.162 35.2131 756.348 35.272 756.519 35.3256L756.938 35.4577L757.367 35.5511C853.462 56.4657 930.043 47.2108 971.576 35.7645C961.964 54.0339 945.289 79.2373 920.96 101.134L898.806 121.074L928.446 117.929C933.993 117.341 941.415 115.733 948.676 113.534C939.744 129.685 923.105 150.242 893.623 165.504L884.305 170.327L931.103 245.02L1130.8 294.01V598.651C1118.44 792.531 1029.26 969.451 922.048 1112.16C817.24 1251.67 695.72 1357.79 613.641 1414.26C198.73 1100.87 96.4852 739.066 97.4927 599.026L97.4929 598.992L97.4929 293.968L292.529 244.994L339.311 170.327L329.993 165.504C300.511 150.242 283.872 129.685 274.94 113.534C282.2 115.733 289.622 117.341 295.17 117.929L324.81 121.074L302.656 101.134C278.308 79.2203 261.626 53.9948 252.017 35.722C293.907 47.1893 371.672 56.4903 467.88 35.5511L468.309 35.4577L468.728 35.3256Z" fill="white"/>
<path d="M383.244 1157.15C403.457 1180.47 465.651 1248.58 509.187 1284.65C530.955 1304.86 583.509 1350.27 613.363 1370.17C635.131 1353.58 686.441 1313.26 717.538 1284.65C757.965 1249.92 858.409 1152.18 936.773 1038.98L974.09 979.898C989.639 953.465 1030.69 882.874 1070.49 762.217L1082.93 718.681C1083.42 716.014 1084.09 712.795 1084.88 709.01L1084.88 709.004C1085.95 703.927 1087.22 697.834 1088.54 690.694L1061.16 675.196V563.747V360.332V307.032L1011.41 294.593V389.6V592.637V647.03L963.974 620.179L962.587 418.317L961.651 282.154L911.896 269.715V448.136V590.698L862.14 562.533V477.404V276.701L812.385 305.702V506.671V534.367L788.392 520.785L762.629 506.201V334.702L712.874 363.702V478.035L663.118 449.869V392.703L613.363 421.703L331.933 259.998L128.247 315.973V605.176C128.247 609.965 128.468 615.011 128.853 620.179C166.979 607.847 223.964 604.839 290.013 607.842C377.966 611.84 481.99 626.496 578.95 643.986C669.048 660.238 753.047 678.937 812.385 693.803C741.091 779.81 545.175 784.832 370.946 766.341C286.791 757.41 207.695 742.992 150.147 729.565C153.88 742.653 158.485 757.943 163.909 774.656C199.99 785.042 248.669 796.554 303.541 805.991C402.473 823.007 521.535 833.28 623.178 818.06C673.334 810.55 719.248 796.833 756.41 774.656C744.271 842.554 652.216 957.636 388.201 954.499C341.859 953.948 290.22 949.755 232.786 941.026C239.006 953.233 245.684 965.813 252.635 978.134C466.63 1013.68 600.943 968.207 641.35 941.026C599.887 995.678 480.267 1103.67 333.488 1098.42C348.986 1118.45 366.084 1139.04 383.244 1157.15Z" fill="#00B88E"/>
<path d="M613.363 1144.71C492.377 1145.39 377.85 1126.51 286.842 1103.88C282.885 1102.9 278.972 1101.91 275.105 1100.91C213.24 1084.97 163.117 1067.55 130.48 1053.98C125.731 1052 121.353 1050.11 117.363 1048.31L50.5037 1197.58C133.948 1234.89 363.341 1309.53 613.363 1309.53C863.384 1309.53 1092.78 1234.89 1176.22 1197.58L1109.36 1048.31C1105.76 1049.93 1101.84 1051.63 1097.62 1053.4C1065.83 1066.72 1016.83 1083.88 956.198 1099.73C951.855 1100.86 947.453 1101.99 942.993 1103.11C851.492 1126.07 735.73 1145.4 613.363 1144.71Z" fill="#030303"/>
<path d="M1097.62 1053.4C1101.84 1051.63 1105.76 1049.93 1109.36 1048.31L988.258 1032.02L983.983 1038.43L996.094 1040.02L1097.62 1053.4Z" fill="#030303"/>
<path d="M956.198 1099.73C1016.83 1083.88 1065.83 1066.72 1097.62 1053.4L996.094 1040.02C990.395 1048.71 967.122 1083.44 956.198 1099.73Z" fill="white"/>
<path d="M243.758 1034.87L117.363 1048.31C121.353 1050.11 125.731 1052 130.48 1053.98L235.921 1043.16L247.32 1041.99L243.758 1034.87Z" fill="#030303"/>
<path d="M130.48 1053.98C163.117 1067.55 213.24 1084.97 275.105 1100.91C267.981 1090.84 250.17 1065.18 235.921 1043.16L130.48 1053.98Z" fill="white"/>
<path d="M148.262 1186.82L211.628 1097.98L235.293 1105.22L239.23 1215.19C243.526 1218.41 246.277 1221.46 247.481 1224.35L241.418 1238.15L201.078 1225.81L203.689 1210.95C205.642 1209.59 208.945 1208.72 213.598 1208.37L213.312 1192.44L178.868 1181.9L170.238 1194.46C173.782 1197.32 176.202 1200.15 177.497 1202.94L171.35 1216.72L132.021 1204.69L134.715 1189.85C137.656 1187.87 142.172 1186.86 148.262 1186.82ZM215.318 1128.68L216.051 1125.68L213.609 1124.93C211.479 1131.89 207.549 1139.62 201.817 1148.12L188.537 1167.45L213.212 1175L213.083 1151.94C212.918 1143.05 213.662 1135.29 215.318 1128.68Z" fill="white"/>
<path d="M352.49 1229.45L365.17 1233.79L358.79 1264.49L277.911 1247.68L279.233 1232.66C281.203 1230.97 284.857 1229.69 290.195 1228.82L306.968 1148.12C302.44 1145.38 299.605 1142.72 298.461 1140.14L303.232 1125.84L344.62 1134.44L343.299 1149.46C340.936 1151.31 337.304 1152.62 332.405 1153.4L315.363 1235.4L343.213 1241.19C346.056 1235.31 349.148 1231.39 352.49 1229.45Z" fill="white"/>
<path d="M401.944 1250.68L448.073 1151.8L472.66 1154.6L496.558 1262.02C501.368 1264.4 504.628 1266.9 506.339 1269.52L502.89 1284.19L460.978 1279.4L460.839 1264.32C462.51 1262.62 465.601 1261.17 470.111 1259.97L466.93 1244.36L431.142 1240.28L424.944 1254.19C428.95 1256.36 431.845 1258.7 433.626 1261.21L430.09 1275.88L389.228 1271.21L389.177 1256.14C391.707 1253.65 395.962 1251.83 401.944 1250.68ZM457.29 1181.3L457.465 1178.22L454.927 1177.93C454.101 1185.16 451.644 1193.48 447.557 1202.88L438.018 1224.31L463.656 1227.24L459.329 1204.58C457.547 1195.87 456.867 1188.11 457.29 1181.3Z" fill="white"/>
<path d="M657.753 1266.25L657.297 1219.4C657.25 1214.58 657.617 1207.12 658.4 1197.02L658.71 1192.7L656.859 1192.54C655.558 1197.66 654.311 1202.25 653.118 1206.32C651.924 1210.38 650.843 1213.91 649.874 1216.92L626.608 1287.69L602.655 1287.92L576.693 1217.63C575.551 1214.94 574.436 1211.93 573.346 1208.59C572.315 1205.19 571.31 1201.51 570.332 1197.52L569.235 1193.39L567.387 1193.59C568.027 1198.92 568.485 1203.82 568.764 1208.28C569.1 1212.68 569.286 1216.67 569.321 1220.25L569.783 1267.72C574.261 1269.32 577.57 1271.49 579.711 1274.23L578.085 1288.16L542.771 1288.51L540.787 1274.61C542.991 1271.83 546.286 1269.59 550.673 1267.91L549.861 1184.51C544.912 1182.8 541.456 1180.63 539.493 1178.01L541.118 1164.08L582.244 1163.67L609.284 1236.07C611.024 1239.99 612.441 1243.79 613.534 1247.48C614.685 1251.11 615.511 1254.56 616.013 1257.85L616.572 1260.92L619.125 1260.9C619.465 1253.62 621.557 1245.29 625.399 1235.91L649.701 1163.02L690.123 1162.62L692.108 1176.52C690.196 1179.18 686.783 1181.42 681.869 1183.22L682.674 1265.83C687.389 1267.66 690.726 1269.74 692.687 1272.07L690.983 1287.06L649.857 1287.46L647.952 1272.68C649.749 1270.32 653.016 1268.17 657.753 1266.25Z" fill="white"/>
<path d="M802.794 1241.01L816.284 1240.9L820.42 1271.98L737.399 1283.03L733.678 1268.42C734.979 1266.17 738.004 1263.76 742.753 1261.17L731.879 1179.46C726.7 1178.37 723.144 1176.8 721.213 1174.75L720.983 1159.68L802.52 1148.82L806.656 1179.9L793.695 1183.32C790.584 1181.3 787.784 1177.17 785.294 1170.93L757.446 1174.64L761.536 1205.36L786.328 1202.07C787.319 1198.38 788.47 1195.68 789.781 1193.97L801.217 1193.78L805.446 1225.55L794.382 1228.54C792.765 1227.51 790.947 1225.2 788.931 1221.62L764.138 1224.92L768.681 1259.05L797.926 1255.16C798.66 1248.67 800.283 1243.95 802.794 1241.01Z" fill="white"/>
<path d="M909.047 1255.29L864.147 1265.57L859.091 1251.36C860.178 1249.01 862.966 1246.32 867.456 1243.31L849.07 1162.95C843.813 1162.35 840.127 1161.11 838.014 1159.25L836.392 1144.26L875.625 1135.28C888.216 1132.4 899.662 1132.28 909.964 1134.92C920.252 1137.51 928.947 1142.87 936.048 1151C943.192 1159.06 948.323 1169.9 951.44 1183.53C954.557 1197.15 954.85 1208.82 952.319 1218.56C949.788 1228.29 944.822 1236.2 937.422 1242.29C930.009 1248.33 920.55 1252.66 909.047 1255.29ZM881.98 1153.98L874.082 1155.78L893.076 1238.8L905.696 1235.91C911.591 1234.56 916.401 1232.29 920.126 1229.09C923.837 1225.83 926.189 1221.1 927.182 1214.91C928.232 1208.71 927.592 1200.52 925.261 1190.33C918.556 1161.03 904.129 1148.91 881.98 1153.98Z" fill="white"/>
<path d="M1001.43 1210.8L1000.47 1101.69L1023.87 1093.64L1091.71 1180.28C1097.07 1180.36 1101.09 1181.21 1103.76 1182.84L1106.97 1197.56L1067.08 1211.3L1060.46 1197.74C1061.24 1195.49 1063.4 1192.85 1066.96 1189.83L1057.36 1177.11L1023.3 1188.84L1023.7 1204.07C1028.26 1204.3 1031.88 1205.16 1034.56 1206.66L1037.69 1221.42L998.803 1234.81L992.263 1221.23C993.474 1217.89 996.531 1214.42 1001.43 1210.8ZM1021.5 1124.35L1020.33 1121.49L1017.91 1122.33C1020.28 1129.21 1021.65 1137.77 1022.01 1148.02L1022.63 1171.46L1047.03 1163.06L1033.37 1144.48C1028.01 1137.39 1024.05 1130.68 1021.5 1124.35Z" fill="white"/>
<path d="M613.363 987.361C458.365 988.219 318.592 955.797 268.081 933.251L221.538 1036.32C279.626 1062.08 439.315 1101.18 613.363 1101.18C787.411 1101.18 947.099 1062.08 1005.19 1036.32L958.645 933.251C908.133 955.797 768.361 988.219 613.363 987.361Z" fill="#030303"/>
<path d="M332.12 978.75L335.261 969.386L388.007 980.438L383.795 1000.54L375.042 999.829C373.559 997.907 372.727 994.746 372.549 990.346L354.534 986.571L350.12 1007.64L366.159 1011C367.627 1008.87 368.926 1007.45 370.056 1006.74L377.176 1009.06L372.857 1029.67L365.382 1029.05C364.591 1028.14 363.97 1026.32 363.52 1023.59L347.481 1020.23L343.458 1039.43C348.371 1041.68 351.767 1044.04 353.646 1046.52L350.505 1055.88L318.541 1049.18L319.423 1039.35C320.716 1038.24 323.111 1037.41 326.609 1036.84L337.685 983.984C334.721 982.184 332.866 980.439 332.12 978.75Z" fill="white"/>
<path d="M483.863 1047.41C482.725 1057.65 479.548 1065 474.332 1069.45C469.154 1073.91 461.366 1075.56 450.967 1074.4C444.009 1073.63 438.584 1071.95 434.693 1069.35C430.806 1066.71 428.212 1063.05 426.912 1058.38C425.612 1053.71 425.346 1047.91 426.114 1040.99L430.33 1003.03C427.433 1001.58 425.42 1000.03 424.29 998.352L426.519 988.73L454.046 991.787L454.11 1001.66C452.683 1003.01 450.396 1004.1 447.248 1004.91L442.981 1043.33C442.353 1048.99 442.805 1053.28 444.339 1056.19C445.877 1059.07 449.035 1060.78 453.814 1061.31C458.593 1061.84 462.11 1060.84 464.366 1058.3C466.626 1055.73 468.061 1051.69 468.673 1046.18L472.939 1007.76C469.817 1006.25 467.804 1004.69 466.899 1003.08L469.186 993.468L494.877 996.321L494.999 1006.2C493.572 1007.56 491.265 1008.63 488.079 1009.44L483.863 1047.41Z" fill="white"/>
<path d="M545.178 1019.02L537.751 1017.97L538.045 1001.07L604.217 1002.21L603.923 1019.12L596.465 1019.91C595.439 1019.16 594.487 1017.49 593.609 1014.9L579.417 1014.65L578.466 1069.46C581.521 1070.74 583.672 1072.09 584.917 1073.49L583.535 1083.28L555.901 1082.8L554.86 1072.97C555.922 1071.65 558.117 1070.38 561.447 1069.16L562.398 1014.36L548.206 1014.11C547.238 1016.67 546.229 1018.31 545.178 1019.02Z" fill="white"/>
<path d="M677.685 1013.42C674.952 1012.9 672.147 1012.74 669.268 1012.93C666.351 1013.12 664.056 1013.98 662.384 1015.52C660.675 1017.09 659.908 1019.21 660.081 1021.86C660.255 1024.5 661.063 1026.53 662.504 1027.94C663.943 1029.31 666.657 1030.43 670.645 1031.28L681.382 1033.64C687.132 1034.92 691.793 1037.22 695.364 1040.53C698.933 1043.81 700.938 1048.82 701.381 1055.58C701.731 1060.91 700.709 1065.61 698.314 1069.66C695.92 1073.71 692.508 1076.94 688.079 1079.35C683.686 1081.72 678.629 1083.09 672.91 1083.46C668.189 1083.77 663.294 1083.5 658.226 1082.63C653.156 1081.73 648.898 1080.3 645.454 1078.33L645.272 1075.56C645.215 1074.68 645.242 1073.33 645.354 1071.51C645.504 1069.69 645.745 1067.78 646.078 1065.79C646.446 1063.77 646.911 1062.04 647.473 1060.61L658.7 1059.88C660.13 1062.29 661.093 1065.5 661.587 1069.52C664.314 1070.54 667.558 1070.92 671.32 1070.67C674.966 1070.43 677.904 1069.37 680.132 1067.49C682.398 1065.61 683.426 1063.06 683.214 1059.83C683.114 1058.3 682.917 1057.06 682.624 1056.11C682.328 1055.13 681.529 1054.12 680.228 1053.09C678.927 1052.06 677.12 1051.25 674.807 1050.67L662.429 1047.95C649.84 1045.27 643.144 1037.81 642.341 1025.56C642.029 1020.8 642.928 1016.58 645.038 1012.9C647.186 1009.21 650.307 1006.25 654.401 1004.01C658.495 1001.78 663.344 1000.48 668.948 1000.11C677.354 999.56 685.674 1000.92 693.907 1004.2L694.085 1006.91C694.142 1007.79 694.097 1009.16 693.949 1011.02C693.837 1012.84 693.596 1014.74 693.225 1016.73C692.893 1018.72 692.427 1020.43 691.827 1021.86L680.657 1022.59C679.188 1020.76 678.197 1017.7 677.685 1013.42Z" fill="white"/>
<path d="M759.52 1061.97L771.177 991.44L787.186 988.873L821.219 1052.43C824.674 1053.08 827.172 1054.09 828.713 1055.44L829.127 1065.3L801.837 1069.68L799.088 1060.19C799.843 1058.82 801.537 1057.36 804.171 1055.81L799.409 1046.52L776.108 1050.26L774.652 1060.13C777.564 1060.79 779.803 1061.76 781.37 1063.03L781.726 1072.9L755.12 1077.17L752.428 1067.67C753.585 1065.65 755.949 1063.75 759.52 1061.97ZM782.199 1008.43L781.766 1006.46L780.113 1006.72C780.869 1011.43 780.786 1017.11 779.866 1023.76L777.629 1038.97L794.321 1036.29L787.594 1022.76C784.932 1017.58 783.134 1012.8 782.199 1008.43Z" fill="white"/>
<path d="M917.085 1023.27L925.762 1021.92L931.429 1041.66L879.408 1056.6L875.592 1047.49C876.219 1045.9 877.947 1044.05 880.777 1041.91L865.876 990.004C862.415 989.797 859.96 989.121 858.511 987.976L856.914 978.23L883.535 970.588L887.35 979.698C886.544 981.49 884.84 983.36 882.237 985.308L897.376 1038.05L915.29 1032.91C915.142 1028.63 915.74 1025.42 917.085 1023.27Z" fill="white"/>
<path d="M362.344 306.621C352.159 311.428 340.604 310.855 340.604 310.855C338.9 298.527 335.197 293.65 329.51 286.43C332.128 297.384 332.87 303.018 327.496 310.212C314.751 310.212 313.635 312.464 305.5 316.741C311.008 316.258 322.676 316.218 325.281 319.927C318.374 330.279 320.122 333.452 319.584 342.626C324.895 332.695 333.5 326.812 333.5 326.812C342.092 335.814 347.74 338.032 356.575 340.562C348.045 333.208 343.444 328.906 343.595 319.927C355.312 315.733 356.443 313.666 362.344 306.621Z" fill="white"/>
<path d="M362.344 306.621C352.159 311.428 340.604 310.855 340.604 310.855C338.9 298.527 335.197 293.65 329.51 286.43C332.128 297.384 332.87 303.018 327.496 310.212C314.751 310.212 313.635 312.464 305.5 316.741C311.008 316.258 322.676 316.218 325.281 319.927C318.374 330.279 320.122 333.452 319.584 342.626C324.895 332.695 333.5 326.812 333.5 326.812C342.092 335.814 347.74 338.032 356.575 340.562C348.045 333.208 343.444 328.906 343.595 319.927C355.312 315.733 356.443 313.666 362.344 306.621Z" fill="white"/>
<path d="M1054.6 707.553C1044.42 712.36 1032.86 711.787 1032.86 711.787C1031.16 699.46 1027.45 694.582 1021.77 687.362C1024.39 698.316 1025.13 703.95 1019.75 711.144C1007.01 711.144 1005.89 713.396 997.758 717.674C1002.47 716.895 1013.03 716.443 1017.54 720.859C1010.63 731.211 1012.38 734.384 1011.84 743.559C1017.15 733.628 1025.76 727.744 1025.76 727.744C1034.35 736.747 1040 738.964 1048.83 741.494C1040.3 734.14 1035.7 729.838 1035.85 720.859C1047.57 716.665 1048.7 714.599 1054.6 707.553Z" fill="white"/>
<path d="M985.375 667.171C975.191 671.979 963.635 671.406 963.635 671.406C961.932 659.078 958.228 654.2 952.541 646.98C955.159 657.934 955.902 663.568 950.528 670.763C937.783 670.763 936.666 673.015 928.532 677.292C933.716 676.59 944.929 676.243 948.312 680.478C941.405 690.829 943.153 694.002 942.615 703.177C947.927 693.246 956.531 687.362 956.531 687.362C965.123 696.365 970.771 698.582 979.607 701.112C971.077 693.758 966.476 689.456 966.627 680.478C978.344 676.284 979.474 674.217 985.375 667.171Z" fill="white"/>
<path d="M916.15 626.79C905.965 631.597 894.41 631.024 894.41 631.024C892.706 618.696 889.003 613.819 883.316 606.599C885.934 617.553 886.676 623.187 881.302 630.381C868.557 630.381 867.441 632.633 859.306 636.91C864.182 636.284 874.963 636.044 879.087 640.096C872.179 650.448 873.928 653.621 873.389 662.795C878.701 652.864 887.306 646.98 887.306 646.98C895.898 655.983 901.546 658.2 910.381 660.731C901.851 653.377 897.25 649.075 897.401 640.096C909.118 635.902 910.249 633.835 916.15 626.79Z" fill="white"/>
<path d="M846.924 586.408C836.739 591.215 825.184 590.642 825.184 590.642C823.48 578.315 819.776 573.437 814.09 566.217C816.708 577.171 817.45 582.805 812.076 589.999C799.331 589.999 798.215 592.251 790.08 596.529C795.264 595.978 806.478 595.844 809.861 599.714C802.953 610.066 804.702 613.239 804.163 622.414C809.475 612.483 818.08 606.599 818.08 606.599C826.672 615.602 832.32 617.819 841.155 620.349C832.625 612.995 828.024 608.693 828.175 599.714C839.892 595.521 841.023 593.454 846.924 586.408Z" fill="white"/>
<path d="M777.698 546.026C767.513 550.834 755.958 550.261 755.958 550.261C754.255 537.933 750.551 533.055 744.864 525.835C747.482 536.789 748.224 542.423 742.85 549.618C730.106 549.618 728.989 551.87 720.855 556.147C725.651 555.672 736.321 555.644 740.635 559.333C733.728 569.684 735.476 572.857 734.938 582.032C740.25 572.101 748.854 566.217 748.854 566.217C757.446 575.22 763.094 577.437 771.929 579.967C763.399 572.613 758.798 568.311 758.95 559.333C770.666 555.139 771.797 553.072 777.698 546.026Z" fill="white"/>
<path d="M708.473 505.645C698.288 510.452 686.733 509.879 686.733 509.879C685.029 497.551 681.325 492.674 675.639 485.454C678.257 496.408 678.999 502.042 673.625 509.236C660.88 509.236 659.763 511.488 651.629 515.765C655.91 514.891 665.86 514.304 671.41 518.951C664.502 529.303 666.25 532.476 665.712 541.65C671.024 531.719 679.629 525.835 679.629 525.835C688.22 534.838 693.869 537.055 702.704 539.586C694.174 532.232 689.573 527.93 689.724 518.951C701.441 514.757 702.572 512.69 708.473 505.645Z" fill="white"/>
<path d="M639.247 465.263C629.062 470.07 617.507 469.497 617.507 469.497C615.803 457.17 612.1 452.292 606.413 445.072C609.031 456.026 609.773 461.66 604.399 468.854C591.654 468.854 590.538 471.106 582.403 475.384C587.587 474.585 598.801 474.105 602.184 478.569C595.277 488.921 597.025 492.094 596.486 501.269C601.798 491.338 610.403 485.454 610.403 485.454C618.995 494.457 624.643 496.674 633.478 499.204C624.948 491.85 620.347 487.548 620.498 478.569C632.215 474.375 633.346 472.309 639.247 465.263Z" fill="white"/>
<path d="M570.021 427.766C559.836 432.573 548.281 432 548.281 432C546.577 419.672 542.874 414.795 537.187 407.575C539.805 418.529 540.547 424.163 535.173 431.357C522.428 431.357 521.312 433.609 513.178 437.886C517.854 436.938 528.358 436.247 532.958 441.072C526.051 451.424 527.799 454.597 527.261 463.771C532.572 453.84 541.177 447.957 541.177 447.957C549.769 456.959 555.417 459.177 564.252 461.707C555.722 454.353 551.121 450.051 551.272 441.072C562.989 436.878 564.12 434.811 570.021 427.766Z" fill="white"/>
<path d="M500.796 387.384C490.611 392.191 479.056 391.618 479.056 391.618C477.352 379.291 473.648 374.413 467.961 367.193C470.579 378.147 471.322 383.781 465.948 390.975C453.203 390.975 452.086 393.228 443.952 397.505C448.827 396.395 459.608 395.478 463.732 400.69C456.825 411.042 458.573 414.215 458.035 423.39C463.347 413.459 471.951 407.575 471.951 407.575C480.543 416.578 486.191 418.795 495.027 421.325C486.497 413.971 481.896 409.669 482.047 400.69C493.764 396.497 494.894 394.43 500.796 387.384Z" fill="white"/>
<path d="M431.57 347.002C421.385 351.81 409.83 351.237 409.83 351.237C408.126 338.909 404.422 334.031 398.736 326.812C401.354 337.765 402.096 343.399 396.722 350.594C383.977 350.594 382.861 352.846 374.726 357.123C380.581 356.564 392.735 356.418 394.507 360.309C387.599 370.66 389.348 373.833 388.809 383.008C394.121 373.077 402.726 367.193 402.726 367.193C411.318 376.196 416.966 378.413 425.801 380.943C417.271 373.59 412.67 369.287 412.821 360.309C424.538 356.115 425.669 354.048 431.57 347.002Z" fill="white"/>
<path fill-rule="evenodd" clip-rule="evenodd" d="M209.639 510.396C216.033 509.977 228.23 507.229 240.862 495.011C235.51 489.006 227.305 477.583 219.96 462.1C216.315 465.597 210.354 470.079 201.556 471.618C201.046 484.612 203.62 497.903 209.639 510.396ZM201.905 466.626C209.782 464.921 214.869 460.483 217.83 457.396C215.144 450.952 213.615 444.125 211.987 436.857L211.986 436.85C211.867 436.32 211.748 435.788 211.628 435.254C206.326 444.94 203.011 455.624 201.905 466.626ZM215.218 429.305C215.784 431.681 216.294 433.955 216.785 436.145C218.511 443.841 220.005 450.506 222.878 456.894C230.77 474.44 239.97 486.961 245.211 492.611C251.661 492.133 266.69 488.01 279.889 475.336C266.223 461.13 261.666 444.791 261.191 437.288C248.364 424.501 244.394 411.194 243.414 403.147C231.713 409.711 222.204 418.767 215.218 429.305ZM248.036 400.74C248.481 407.262 251.4 420.201 263.669 432.916C269.64 427.549 281.201 419.205 296.937 411.763C293.447 407.753 288.62 401.051 286.872 392.661C273.859 392.141 260.547 394.713 248.036 400.74ZM291.917 393.019C293.838 400.429 298.488 406.343 301.551 409.671C308.399 406.749 315.409 404.756 323.276 402.785C313.596 397.47 302.917 394.14 291.917 393.019ZM329.127 406.323C318.648 408.867 310.193 411.065 301.958 414.769C284.421 422.655 271.908 431.852 266.262 437.092C266.743 443.544 270.87 458.581 283.548 471.791C297.742 458.128 314.072 453.576 321.574 453.103C334.301 440.299 347.298 435.724 355.309 434.565C348.744 422.843 339.679 413.318 329.127 406.323ZM357.695 439.151C351.272 439.693 338.553 443.243 325.76 455.757C331.113 461.745 339.367 473.212 346.749 488.782C350.651 484.977 357.197 479.499 365.771 477.915C366.281 464.925 363.709 451.64 357.695 439.151ZM365.42 482.928C357.954 484.734 352.274 490.04 348.887 493.482C351.801 500.253 353.7 506.715 355.639 514.386C360.972 504.678 364.308 493.963 365.42 482.928ZM352.107 520.229C349.575 509.822 347.525 502.202 343.815 493.955C335.923 476.408 326.723 463.887 321.483 458.237C315.039 458.715 300.032 462.83 286.842 475.477C292.324 481.202 296.321 487.258 299.171 492.917C303.44 501.342 305.216 509.01 305.503 513.56C318.265 526.235 322.73 538.575 323.867 546.411C335.588 539.845 345.112 530.78 352.107 520.229ZM319.279 548.797C318.756 542.511 315.373 530.56 302.946 517.843C296.949 523.181 285.591 531.338 270.207 538.648C274.059 542.293 279.338 548.273 280.597 556.876C293.56 557.372 306.817 554.798 319.279 548.797ZM275.637 556.536C274.162 549.057 268.976 544.021 265.421 540.821C259.073 543.48 252.74 544.891 245.741 546.45C245.216 546.567 244.688 546.685 244.156 546.804C253.874 552.122 264.597 555.442 275.637 556.536ZM238.203 543.211C240.612 542.638 242.875 542.133 245.03 541.653C252.419 540.005 258.538 538.64 264.887 535.784C282.424 527.898 294.937 518.701 300.583 513.461C300.3 509.684 298.757 502.842 294.858 495.097C292.176 489.804 288.415 484.144 283.26 478.799C269.074 492.433 252.765 496.978 245.271 497.45C232.554 510.231 219.914 514.075 212.049 515.022C218.612 526.72 227.667 536.227 238.203 543.211ZM206.01 513.962C184.363 471.075 201.58 418.76 244.467 397.112C287.354 375.465 339.669 392.683 361.317 435.57C382.964 478.456 365.747 530.772 322.86 552.419C279.973 574.067 227.658 556.849 206.01 513.962Z" fill="#030303"/>
<path d="M301.958 414.769C310.193 411.065 318.648 408.867 329.127 406.323C339.679 413.318 348.744 422.843 355.309 434.565C347.298 435.724 334.301 440.299 321.574 453.103C314.072 453.576 297.742 458.128 283.548 471.791C270.87 458.581 266.743 443.544 266.262 437.092C271.908 431.852 284.421 422.655 301.958 414.769Z" fill="#DFB501"/>
<path d="M343.815 493.955C347.525 502.202 349.575 509.822 352.107 520.229C345.112 530.78 335.588 539.845 323.867 546.411C322.73 538.575 318.265 526.235 305.503 513.56C305.216 509.01 303.44 501.342 299.171 492.917C296.321 487.258 292.324 481.202 286.842 475.477C300.032 462.83 315.039 458.715 321.483 458.237C326.723 463.887 335.923 476.408 343.815 493.955Z" fill="#DFB501"/>
<path d="M325.76 455.757C338.553 443.243 351.272 439.693 357.695 439.151C363.709 451.64 366.281 464.925 365.771 477.915C357.197 479.499 350.651 484.977 346.749 488.782C339.367 473.212 331.113 461.745 325.76 455.757Z" fill="#DFB501"/>
<path d="M348.887 493.482C352.274 490.04 357.954 484.734 365.42 482.928C364.308 493.963 360.972 504.678 355.639 514.386C353.7 506.715 351.801 500.253 348.887 493.482Z" fill="#DFB501"/>
<path d="M302.946 517.843C315.373 530.56 318.756 542.511 319.279 548.797C306.817 554.798 293.56 557.372 280.597 556.876C279.338 548.273 274.059 542.293 270.207 538.648C285.591 531.338 296.949 523.181 302.946 517.843Z" fill="#DFB501"/>
<path d="M265.421 540.821C268.976 544.021 274.162 549.057 275.637 556.536C264.597 555.442 253.874 552.122 244.156 546.804C244.688 546.685 245.216 546.567 245.741 546.45C252.74 544.891 259.073 543.48 265.421 540.821Z" fill="#DFB501"/>
<path d="M245.03 541.653C242.875 542.133 240.612 542.638 238.203 543.211C227.667 536.227 218.612 526.72 212.049 515.022C219.914 514.075 232.554 510.231 245.271 497.45C252.765 496.978 269.074 492.433 283.26 478.799C288.415 484.144 292.176 489.804 294.858 495.097C298.757 502.842 300.3 509.684 300.583 513.461C294.937 518.701 282.424 527.898 264.887 535.784C258.538 538.64 252.419 540.005 245.03 541.653Z" fill="#DFB501"/>
<path d="M216.785 436.145C216.294 433.955 215.784 431.681 215.218 429.305C222.204 418.767 231.713 409.711 243.414 403.147C244.394 411.194 248.364 424.501 261.191 437.288C261.666 444.791 266.223 461.13 279.889 475.336C266.69 488.01 251.661 492.133 245.211 492.611C239.97 486.961 230.77 474.44 222.878 456.894C220.005 450.506 218.511 443.841 216.785 436.145Z" fill="#DFB501"/>
<path d="M240.862 495.011C228.23 507.229 216.033 509.977 209.639 510.396C203.62 497.903 201.046 484.612 201.556 471.618C210.354 470.079 216.315 465.597 219.96 462.1C227.305 477.583 235.51 489.006 240.862 495.011Z" fill="#DFB501"/>
<path d="M217.83 457.396C214.869 460.483 209.782 464.921 201.905 466.626C203.011 455.624 206.326 444.94 211.628 435.254C211.748 435.788 211.867 436.32 211.986 436.85L211.987 436.857C213.615 444.125 215.144 450.952 217.83 457.396Z" fill="#DFB501"/>
<path d="M263.669 432.916C251.4 420.201 248.481 407.262 248.036 400.74C260.547 394.713 273.859 392.141 286.872 392.661C288.62 401.051 293.447 407.753 296.937 411.763C281.201 419.205 269.64 427.549 263.669 432.916Z" fill="#DFB501"/>
<path d="M301.551 409.671C298.488 406.343 293.838 400.429 291.917 393.019C302.917 394.14 313.596 397.47 323.276 402.785C315.409 404.756 308.399 406.749 301.551 409.671Z" fill="#DFB501"/>
<path fill-rule="evenodd" clip-rule="evenodd" d="M462.921 147.502L590.927 223.614L583.412 226.119C563.707 232.687 533.526 238.905 507.114 235.962C493.886 234.488 481.309 230.683 471.484 223.186C461.554 215.609 454.709 204.461 452.727 188.933L452.26 185.278L455.922 184.872C456.631 184.793 459.072 183.894 461.165 179.433C463.242 175.002 464.806 167.295 463.598 154.611L462.921 147.502ZM763.805 147.502L763.128 154.611C761.919 167.295 763.483 175.002 765.561 179.433C767.653 183.894 770.094 184.793 770.804 184.872L774.465 185.278L773.999 188.933C772.016 204.461 765.171 215.609 755.241 223.186C745.417 230.683 732.839 234.488 719.611 235.962C693.2 238.905 663.018 232.687 643.314 226.119L635.799 223.614L763.805 147.502Z" fill="#030303"/>
</svg>
