<svg width="192" height="288" viewBox="0 0 192 288" fill="none" xmlns="http://www.w3.org/2000/svg">
<path d="M48 288C74.5097 288 96 266.51 96 240V192H48C21.4903 192 0 213.49 0 240C0 266.51 21.4903 288 48 288Z" fill="#0DCF84"/>
<path d="M0 144C0 170.51 21.4903 192 48 192H96V96H48C21.4903 96 0 117.49 0 144Z" fill="#A259FF"/>
<path d="M0 48C0 74.5097 21.4903 96 48 96H96V0H48C21.4903 0 0 21.4903 0 48Z" fill="#F24E1E"/>
<path d="M192 144C192 170.51 170.51 192 144 192C117.49 192 96 170.51 96 144C96 117.49 117.49 96 144 96C170.51 96 192 117.49 192 144Z" fill="#1ABCFE"/>
<path d="M144 96C170.51 96 192 74.5097 192 48C192 21.4903 170.51 0 144 0H96V96H144Z" fill="#FF7262"/>
</svg>
