<svg width="614" height="141" viewBox="0 0 614 141" fill="none" xmlns="http://www.w3.org/2000/svg">
<path fill-rule="evenodd" clip-rule="evenodd" d="M94 0H47V47H0V141H94V94H141V47H94V0ZM94 47V94H47V47H94Z" fill="#0A00F4"/>
<path d="M141 0H121V20H141V0Z" fill="#0A00F4"/>
<path d="M304.55 101.212C312.661 101.212 320.138 97.9264 325.461 92.618L335.853 103.108C327.869 111.071 316.843 116 304.55 116C280.091 116 260.067 98.3055 260.067 70.5C260.067 43.8319 278.57 25 304.55 25C316.843 25 327.869 29.9292 335.853 38.0181L325.461 48.3819C320.138 43.0736 312.661 39.7875 304.55 39.7875C286.301 39.7875 275.148 52.6792 275.148 70.5C275.148 89.4583 288.202 101.212 304.55 101.212Z" fill="#0A00F4"/>
<path d="M493.493 25.1264C551.664 25.1264 551.79 115.874 493.493 115.874C434.943 115.874 435.07 25.1264 493.493 25.1264ZM493.493 101.592C531.893 101.592 531.893 39.5347 493.493 39.5347C455.22 39.5347 455.093 101.592 493.493 101.592Z" fill="#0A00F4"/>
<path fill-rule="evenodd" clip-rule="evenodd" d="M195.828 41.0514H240.184V26.2639H195.828V41.0514ZM181 41.0514V114.736H240.184V99.9486H195.828V77.8306H232.707V63.1694H195.828V54.5V41.0514H181ZM188.414 26.2639H181V33.6576H188.414V26.2639Z" fill="#0A00F4"/>
<path d="M410.668 26.2639H425.495V114.736H410.668V77.8306H373.789V114.736H358.961V87V77.8306V26.2639H373.789V62.9167H410.668V41.0514V26.2639Z" fill="#0A00F4"/>
<path d="M586.372 116C571.038 115.621 558.871 106.774 558.618 90.2167H573.446C573.699 97.5472 579.782 101.212 586.372 101.212C593.216 101.212 599.299 96.7889 599.299 89.8375C599.299 82.3806 592.329 77.8305 586.372 77.5778C585.612 77.5778 579.529 77.5778 573.065 74.6708C563.814 70.3736 558.618 62.5375 558.618 52.0472C558.618 48.9705 559.068 46.1139 559.891 43.5C563.565 31.8329 574.673 25 586.372 25C601.707 25 613.493 35.3639 613.747 50.4042H599.046C598.792 43.0736 593.089 39.7875 586.372 39.7875C579.402 39.7875 573.446 43.8319 573.446 52.0472C573.446 59.3778 579.782 63.2958 586.372 63.2958C587.006 63.2958 593.216 63.2958 599.553 66.2028C608.931 70.5 614 79.3472 614 89.8375C614 106.774 600.693 116 586.372 116Z" fill="#0A00F4"/>
</svg>
